<svg width="24" height="24" fill="none" xmlns="http://www.w3.org/2000/svg"><path d="M14 4a2 2 0 1 1-4 0 2 2 0 0 1 4 0z" fill="currentColor"/><path fill-rule="evenodd" clip-rule="evenodd" d="M6 8a1 1 0 0 1 1-1h10a1 1 0 1 1 0 2h-2.5v8a1 1 0 1 1-2 0v-4h-1v4a1 1 0 1 1-2 0V9H7a1 1 0 0 1-1-1zm5.5 1v2h1V9h-1z" fill="currentColor"/><path d="M6 11a1 1 0 0 0-.949.684l-3 9A1 1 0 0 0 3 22h18a1 1 0 0 0 .949-1.316l-3-9A1 1 0 0 0 18 11h-.5a1 1 0 0 0-.23 1.973L19.613 20H4.387l2.343-7.027A1 1 0 0 0 6.5 11H6z" fill="currentColor"/><path d="M14 4a2 2 0 1 1-4 0 2 2 0 0 1 4 0z" stroke="#fff"/><path clip-rule="evenodd" d="M6 8a1 1 0 0 1 1-1h10a1 1 0 1 1 0 2h-2.5v8a1 1 0 1 1-2 0v-4h-1v4a1 1 0 1 1-2 0V9H7a1 1 0 0 1-1-1zm5.5 1v2h1V9h-1z" stroke="#fff"/><path d="M6 11a1 1 0 0 0-.949.684l-3 9A1 1 0 0 0 3 22h18a1 1 0 0 0 .949-1.316l-3-9A1 1 0 0 0 18 11h-.5a1 1 0 0 0-.23 1.973L19.613 20H4.387l2.343-7.027A1 1 0 0 0 6.5 11H6z" stroke="#fff"/></svg>