<svg width="24" height="24" fill="none" xmlns="http://www.w3.org/2000/svg"><path d="M2.5 6a1 1 0 0 1 1-1h1a1 1 0 0 1 1 1v10.5a.5.5 0 0 1-.5.5.5.5 0 0 0-.5.5v.5a1 1 0 0 1-1 1h-2a1 1 0 1 1 0-2 1 1 0 0 0 1-1V6zm7 0a1 1 0 0 0-1-1h-1a1 1 0 0 0-1 1v12a1 1 0 0 0 1 1H9a.5.5 0 0 0 .5-.5.5.5 0 0 1 .5-.5h.5a1 1 0 1 0 0-2 1 1 0 0 1-1-1V6zm7 0a1 1 0 0 0-1-1h-1a1 1 0 0 0-1 1v10.5a.5.5 0 0 0 .5.5.5.5 0 0 1 .5.5v.5a1 1 0 0 0 1 1h6a1 1 0 1 0 0-2h-4a1 1 0 0 1-1-1v-3a1 1 0 0 1 1-1h4a1 1 0 1 0 0-2h-4a1 1 0 0 1-1-1V6zm4-.5a.5.5 0 0 1 1 0v2a.5.5 0 0 1-1 0v-2zm3 0a.5.5 0 0 0-1 0v2a.5.5 0 0 0 1 0v-2z" fill="currentColor"/></svg>