<svg width="24" height="24" fill="none" xmlns="http://www.w3.org/2000/svg"><path fill-rule="evenodd" clip-rule="evenodd" d="M15 6a1 1 0 1 0 0-2 1 1 0 0 0 0 2zm0 2a3 3 0 1 0 0-6 3 3 0 0 0 0 6zm-7 2a1 1 0 0 1 1-1h12a1 1 0 1 1 0 2h-3v4.807l1.928 4.822a1 1 0 0 1-1.857.742L16.323 17h-2.646l-1.748 4.371a1 1 0 0 1-1.857-.742L12 15.807V11H9a1 1 0 0 1-1-1zm6 1v4h2v-4h-2z" fill="currentColor"/><path fill-rule="evenodd" clip-rule="evenodd" d="M4.293 2.293a1 1 0 0 1 1.414 0l2 2a1 1 0 0 1-1.414 1.414L6 5.414v13.172l.293-.293a1 1 0 0 1 1.414 1.414l-2 2a1 1 0 0 1-1.414 0l-2-2a1 1 0 1 1 1.414-1.414l.293.293V5.414l-.293.293a1 1 0 0 1-1.414-1.414l2-2z" fill="currentColor"/></svg>