<svg width="24" height="24" fill="none" xmlns="http://www.w3.org/2000/svg"><path fill-rule="evenodd" clip-rule="evenodd" d="M4.436 5.184C4 6.04 4 7.16 4 9.4v5.2c0 2.24 0 3.36.436 4.216a4 4 0 0 0 1.748 1.748C7.04 21 8.16 21 10.4 21h8.065a1.535 1.535 0 0 0 1.277-2.387l-.054-.081a1.86 1.86 0 0 1 0-2.064A1.86 1.86 0 0 0 20 15.437V6.2c0-1.12 0-1.68-.218-2.108a2 2 0 0 0-.874-.874C18.48 3 17.92 3 16.8 3h-6.4c-2.24 0-3.36 0-4.216.436a4 4 0 0 0-1.748 1.748zM9.5 7a.5.5 0 0 0 0 1h6a.5.5 0 0 0 0-1h-6zM9 9.5a.5.5 0 0 1 .5-.5h6a.5.5 0 0 1 0 1h-6a.5.5 0 0 1-.5-.5zM7.5 16h10.179a3.862 3.862 0 0 0 0 3H8.4c-.363 0-.685 0-.974-.002A1.5 1.5 0 0 1 7.5 16z" fill="currentColor"/></svg>