<svg width="24" height="24" fill="none" xmlns="http://www.w3.org/2000/svg"><path d="m16 6-4-4-4 4h3v5a1 1 0 0 0 2 0V6h3z" fill="currentColor"/><path d="m9 8.835-4.606 2.818a1 1 0 0 0 0 1.706l7.084 4.334a1 1 0 0 0 1.044 0l7.084-4.334a1 1 0 0 0 0-1.706L15 8.835v1.993l2.74 1.678-5.218 3.196a1 1 0 0 1-1.044 0L6.26 12.506 9 10.828V8.835z" fill="currentColor"/><path d="M11.468 19.69a1 1 0 0 0 1.044 0l6.413-3.923a.851.851 0 1 1 .889 1.453l-7.292 4.46a1 1 0 0 1-1.044 0l-7.3-4.465a.845.845 0 0 1 .883-1.442l6.407 3.918z" fill="currentColor"/></svg>