<svg width="24" height="24" fill="none" xmlns="http://www.w3.org/2000/svg"><path fill-rule="evenodd" clip-rule="evenodd" d="M12 5a3 3 0 0 1 3-3h4a3 3 0 0 1 3 3v4a3 3 0 0 1-3 3h-4a3 3 0 0 1-3-3V5zm4 1.375a1.125 1.125 0 1 1-2.25 0 1.125 1.125 0 0 1 2.25 0zM19.125 7.5a1.125 1.125 0 1 0 0-2.25 1.125 1.125 0 0 0 0 2.25zm-4.773 1.097a.75.75 0 0 1 1.06-.002A2.24 2.24 0 0 0 17 9.25c.62 0 1.18-.25 1.587-.655a.75.75 0 0 1 1.058 1.063A3.74 3.74 0 0 1 17 10.75a3.74 3.74 0 0 1-2.645-1.092.75.75 0 0 1-.003-1.06zM2 15a3 3 0 0 1 3-3h4a3 3 0 0 1 3 3v4a3 3 0 0 1-3 3H5a3 3 0 0 1-3-3v-4zm4 1.375a1.125 1.125 0 1 1-2.25 0 1.125 1.125 0 0 1 2.25 0zM9.125 17.5a1.125 1.125 0 1 0 0-2.25 1.125 1.125 0 0 0 0 2.25zm-4.773 1.097a.75.75 0 0 1 1.06-.002A2.24 2.24 0 0 0 7 19.25c.62 0 1.18-.25 1.587-.655a.75.75 0 0 1 1.058 1.063A3.74 3.74 0 0 1 7 20.75a3.74 3.74 0 0 1-2.645-1.092.75.75 0 0 1-.003-1.06z" fill="currentColor"/><path d="M5 4a1 1 0 0 1 1-1h3a1 1 0 0 1 0 2H7v2h.5a1 1 0 0 1 .707 1.707l-1.5 1.5a1 1 0 0 1-1.414 0l-1.5-1.5A1 1 0 0 1 4.5 7H5V4zm13 17a1 1 0 0 0 1-1v-3h.5a1 1 0 0 0 .707-1.707l-1.5-1.5a1 1 0 0 0-1.414 0l-1.5 1.5A1 1 0 0 0 16.5 17h.5v2h-2a1 1 0 1 0 0 2h3z" fill="currentColor"/><path clip-rule="evenodd" d="M12 5a3 3 0 0 1 3-3h4a3 3 0 0 1 3 3v4a3 3 0 0 1-3 3h-4a3 3 0 0 1-3-3V5zm4 1.375a1.125 1.125 0 1 1-2.25 0 1.125 1.125 0 0 1 2.25 0zM19.125 7.5a1.125 1.125 0 1 0 0-2.25 1.125 1.125 0 0 0 0 2.25zm-4.773 1.097a.75.75 0 0 1 1.06-.002A2.24 2.24 0 0 0 17 9.25c.62 0 1.18-.25 1.587-.655a.75.75 0 0 1 1.058 1.063A3.74 3.74 0 0 1 17 10.75a3.74 3.74 0 0 1-2.645-1.092.75.75 0 0 1-.003-1.06zM2 15a3 3 0 0 1 3-3h4a3 3 0 0 1 3 3v4a3 3 0 0 1-3 3H5a3 3 0 0 1-3-3v-4zm4 1.375a1.125 1.125 0 1 1-2.25 0 1.125 1.125 0 0 1 2.25 0zM9.125 17.5a1.125 1.125 0 1 0 0-2.25 1.125 1.125 0 0 0 0 2.25zm-4.773 1.097a.75.75 0 0 1 1.06-.002A2.24 2.24 0 0 0 7 19.25c.62 0 1.18-.25 1.587-.655a.75.75 0 0 1 1.058 1.063A3.74 3.74 0 0 1 7 20.75a3.74 3.74 0 0 1-2.645-1.092.75.75 0 0 1-.003-1.06z" stroke="#fff"/><path d="M5 4a1 1 0 0 1 1-1h3a1 1 0 0 1 0 2H7v2h.5a1 1 0 0 1 .707 1.707l-1.5 1.5a1 1 0 0 1-1.414 0l-1.5-1.5A1 1 0 0 1 4.5 7H5V4zm13 17a1 1 0 0 0 1-1v-3h.5a1 1 0 0 0 .707-1.707l-1.5-1.5a1 1 0 0 0-1.414 0l-1.5 1.5A1 1 0 0 0 16.5 17h.5v2h-2a1 1 0 1 0 0 2h3z" stroke="#fff"/></svg>