<svg width="24" height="24" fill="none" xmlns="http://www.w3.org/2000/svg"><path fill-rule="evenodd" clip-rule="evenodd" d="M2 8a6 6 0 0 1 6-6h8a6 6 0 0 1 6 6v13a1 1 0 0 1-1 1H8a6 6 0 0 1-6-6V8zm11.125 8.875a1.125 1.125 0 1 1-2.25 0 1.125 1.125 0 0 1 2.25 0zM10 9.75a2 2 0 1 1 4 0c0 .568-.137.87-.277 1.064-.16.22-.39.393-.753.62l-.136.083c-.312.19-.748.458-1.087.81-.454.473-.747 1.094-.747 1.923a1 1 0 1 0 2 0c0-.296.082-.425.19-.538.146-.152.333-.268.66-.47l.18-.113c.388-.242.907-.585 1.31-1.138.422-.58.66-1.31.66-2.241a4 4 0 0 0-8 0 1 1 0 1 0 2 0z" fill="currentColor"/></svg>