<svg width="24" height="24" fill="none" xmlns="http://www.w3.org/2000/svg"><mask id="path-1-inside-1_14315_61" fill="#fff"><path d="M13 12a1 1 0 1 1-2 0 1 1 0 0 1 2 0ZM9 12a1 1 0 1 1-2 0 1 1 0 0 1 2 0ZM5 12a1 1 0 1 1-2 0 1 1 0 0 1 2 0ZM17 12a1 1 0 1 1-2 0 1 1 0 0 1 2 0ZM21 12a1 1 0 1 1-2 0 1 1 0 0 1 2 0ZM13 16a1 1 0 1 1-2 0 1 1 0 0 1 2 0ZM9 16a1 1 0 1 1-2 0 1 1 0 0 1 2 0ZM5 16a1 1 0 1 1-2 0 1 1 0 0 1 2 0ZM17 16a1 1 0 1 1-2 0 1 1 0 0 1 2 0ZM21 16a1 1 0 1 1-2 0 1 1 0 0 1 2 0ZM13 20a1 1 0 1 1-2 0 1 1 0 0 1 2 0ZM9 20a1 1 0 1 1-2 0 1 1 0 0 1 2 0ZM5 20a1 1 0 1 1-2 0 1 1 0 0 1 2 0ZM17 20a1 1 0 1 1-2 0 1 1 0 0 1 2 0ZM21 20a1 1 0 1 1-2 0 1 1 0 0 1 2 0ZM13 8a1 1 0 1 1-2 0 1 1 0 0 1 2 0ZM9 8a1 1 0 1 1-2 0 1 1 0 0 1 2 0ZM5 8a1 1 0 1 1-2 0 1 1 0 0 1 2 0ZM17 8a1 1 0 1 1-2 0 1 1 0 0 1 2 0ZM21 8a1 1 0 1 1-2 0 1 1 0 0 1 2 0ZM13 4a1 1 0 1 1-2 0 1 1 0 0 1 2 0ZM9 4a1 1 0 1 1-2 0 1 1 0 0 1 2 0ZM5 4a1 1 0 1 1-2 0 1 1 0 0 1 2 0ZM17 4a1 1 0 1 1-2 0 1 1 0 0 1 2 0ZM21 4a1 1 0 1 1-2 0 1 1 0 0 1 2 0Z"/></mask><path d="M13 12a1 1 0 1 1-2 0 1 1 0 0 1 2 0ZM9 12a1 1 0 1 1-2 0 1 1 0 0 1 2 0ZM5 12a1 1 0 1 1-2 0 1 1 0 0 1 2 0ZM17 12a1 1 0 1 1-2 0 1 1 0 0 1 2 0ZM21 12a1 1 0 1 1-2 0 1 1 0 0 1 2 0ZM13 16a1 1 0 1 1-2 0 1 1 0 0 1 2 0ZM9 16a1 1 0 1 1-2 0 1 1 0 0 1 2 0ZM5 16a1 1 0 1 1-2 0 1 1 0 0 1 2 0ZM17 16a1 1 0 1 1-2 0 1 1 0 0 1 2 0ZM21 16a1 1 0 1 1-2 0 1 1 0 0 1 2 0ZM13 20a1 1 0 1 1-2 0 1 1 0 0 1 2 0ZM9 20a1 1 0 1 1-2 0 1 1 0 0 1 2 0ZM5 20a1 1 0 1 1-2 0 1 1 0 0 1 2 0ZM17 20a1 1 0 1 1-2 0 1 1 0 0 1 2 0ZM21 20a1 1 0 1 1-2 0 1 1 0 0 1 2 0ZM13 8a1 1 0 1 1-2 0 1 1 0 0 1 2 0ZM9 8a1 1 0 1 1-2 0 1 1 0 0 1 2 0ZM5 8a1 1 0 1 1-2 0 1 1 0 0 1 2 0ZM17 8a1 1 0 1 1-2 0 1 1 0 0 1 2 0ZM21 8a1 1 0 1 1-2 0 1 1 0 0 1 2 0ZM13 4a1 1 0 1 1-2 0 1 1 0 0 1 2 0ZM9 4a1 1 0 1 1-2 0 1 1 0 0 1 2 0ZM5 4a1 1 0 1 1-2 0 1 1 0 0 1 2 0ZM17 4a1 1 0 1 1-2 0 1 1 0 0 1 2 0ZM21 4a1 1 0 1 1-2 0 1 1 0 0 1 2 0Z" stroke="#858585" stroke-width="2" mask="url('#path-1-inside-1_14315_61')"/></svg>