<svg width="32" height="32" fill="none" xmlns="http://www.w3.org/2000/svg"><path fill-rule="evenodd" clip-rule="evenodd" d="M17 14.5V9h-2v5.5H6v-2.936c0-.892.093-1.215.267-1.54a1.81 1.81 0 0 1 .756-.757c.323-.172.642-.265 1.512-.267a4 4 0 1 1 14.93 0c.87.002 1.19.095 1.512.267.326.174.582.43.756.756.174.326.267.65.267 1.54V14.5h-9zm0 2h9v6.936c0 .892-.093 1.215-.267 1.54a1.81 1.81 0 0 1-.756.757c-.326.174-.65.267-1.54.267H17v-9.5zM8.564 26c-.892 0-1.215-.093-1.54-.267a1.817 1.817 0 0 1-.757-.756c-.174-.326-.267-.65-.267-1.54V16.5h9V26H8.564zM20 9a2 2 0 1 0-2-2v2h2zm-8 0h2V7a2 2 0 1 0-2 2z" fill="currentColor"/></svg>