<svg width="24" height="24" fill="none" xmlns="http://www.w3.org/2000/svg"><path fill-rule="evenodd" clip-rule="evenodd" d="M12 2a1 1 0 0 1 1 1v1a1 1 0 1 1-2 0V3a1 1 0 0 1 1-1zM3.44 3.44a1 1 0 0 1 1.414 0l.707.706a1 1 0 1 1-1.415 1.415l-.707-.707a1 1 0 0 1 0-1.415zm17.12 0a1 1 0 0 1 0 1.414l-.706.707a1 1 0 1 1-1.415-1.415l.707-.707a1 1 0 0 1 1.415 0zM5.107 7.552A1 1 0 0 1 6 7h12a1 1 0 0 1 .895.553l2 4a1 1 0 0 1-.188 1.154l-8 8a1 1 0 0 1-1.414 0l-8-8a1 1 0 0 1-.187-1.154l2-4zM6.618 9l-1 2h12.764l-1-2H6.618zm10.968 4H6.414L12 18.586 17.586 13z" fill="currentColor"/></svg>