<svg width="24" height="24" fill="none" xmlns="http://www.w3.org/2000/svg"><path fill-rule="evenodd" clip-rule="evenodd" d="M7.808 6.394 9.695 8.28A4.356 4.356 0 0 1 11 7.74V5.07a6.96 6.96 0 0 0-3.192 1.324zM13 5.07v2.67c.468.11.908.294 1.305.54l1.887-1.886A6.959 6.959 0 0 0 13 5.07zm4.607 2.737-1.888 1.887c.247.397.431.837.541 1.305h2.67a6.96 6.96 0 0 0-1.323-3.192zM18.928 13H16.26c-.11.468-.295.908-.54 1.305l1.886 1.887A6.96 6.96 0 0 0 18.93 13zm-2.737 4.607-1.887-1.888A4.356 4.356 0 0 1 13 16.26v2.67a6.96 6.96 0 0 0 3.192-1.323zM11 18.928V16.26a4.355 4.355 0 0 1-1.305-.54l-1.887 1.886A6.96 6.96 0 0 0 11 18.93zm-4.606-2.737 1.887-1.887A4.356 4.356 0 0 1 7.74 13H5.07a6.959 6.959 0 0 0 1.324 3.192zM5.07 11h2.67a4.38 4.38 0 0 1 .54-1.305L6.395 7.808A6.96 6.96 0 0 0 5.07 11zm.565-5.364A8.975 8.975 0 0 1 12 3a8.975 8.975 0 0 1 6.364 2.636A8.975 8.975 0 0 1 21 12a8.975 8.975 0 0 1-2.636 6.364A8.975 8.975 0 0 1 12 21a8.975 8.975 0 0 1-6.364-2.636A8.975 8.975 0 0 1 3 12a8.975 8.975 0 0 1 2.636-6.364zM12 9.625c-.656 0-1.248.265-1.68.696A2.365 2.365 0 0 0 9.626 12c0 .656.265 1.248.696 1.68.43.43 1.023.695 1.679.695.656 0 1.248-.265 1.68-.696.43-.43.695-1.023.695-1.679 0-.656-.265-1.248-.696-1.68A2.365 2.365 0 0 0 12 9.626z" fill="currentColor"/></svg>