<svg width="24" height="24" fill="none" xmlns="http://www.w3.org/2000/svg"><path fill-rule="evenodd" clip-rule="evenodd" d="M2 5a2 2 0 0 1 2-2h7a2 2 0 0 1 2 2v3a3 3 0 0 0-2.79 1.895L9 10.5 6 9l-2 .993V13h6v2H4a2 2 0 0 1-2-2V5zm7.5 0a1.5 1.5 0 1 0 0 3 1.5 1.5 0 0 0 0-3z" fill="currentColor"/><path fill-rule="evenodd" clip-rule="evenodd" d="M13 21a2 2 0 0 1-2-2v-8a2 2 0 0 1 2-2h7a2 2 0 0 1 2 2v8a2 2 0 0 1-2 2h-7zm0-5.007L15 15l3 1.5 2-1V19h-7v-3.007zM18.5 11a1.5 1.5 0 1 0 0 3 1.5 1.5 0 0 0 0-3z" fill="currentColor"/></svg>