<svg width="24" height="24" fill="none" xmlns="http://www.w3.org/2000/svg"><path d="M5 5.5a.5.5 0 0 1 .5-.5H15v7.327a.497.497 0 0 0-.26.17l-2.602 3.261-1.745-2.045a.5.5 0 0 0-.771.012L7.65 16.188a.5.5 0 0 0 .39.812H15v2H5.5a.5.5 0 0 1-.5-.5v-13z" fill="currentColor"/><path fill-rule="evenodd" clip-rule="evenodd" d="M5 2a3 3 0 0 0-3 3v14a3 3 0 0 0 3 3h10a3 3 0 0 0 3-3V5a3 3 0 0 0-3-3H5zM4 5a1 1 0 0 1 1-1h10a1 1 0 0 1 1 1v14a1 1 0 0 1-1 1H5a1 1 0 0 1-1-1V5z" fill="currentColor"/><path opacity=".32" d="M19 5h2a1 1 0 0 1 1 1v12a1 1 0 0 1-1 1h-2V5z" fill="currentColor"/></svg>