<svg width="24" height="24" fill="none" xmlns="http://www.w3.org/2000/svg"><path fill-rule="evenodd" clip-rule="evenodd" d="M7 9a1 1 0 0 1 1-1h8a1 1 0 0 1 1 1v7a1 1 0 0 1-1 1H8a1 1 0 0 1-1-1V9zm5.587 3.516a.5.5 0 0 1 .797.022l1.551 2.171a.5.5 0 0 1-.407.791H9.5a.5.5 0 0 1-.4-.8l.554-.739a.5.5 0 0 1 .754-.053L11 14.5l1.587-1.984z" fill="currentColor"/><path fill-rule="evenodd" clip-rule="evenodd" d="M7 2a3 3 0 0 0-3 3v14a3 3 0 0 0 3 3h10a3 3 0 0 0 3-3V5a3 3 0 0 0-3-3H7zM6 5a1 1 0 0 1 1-1h10a1 1 0 0 1 1 1v14a1 1 0 0 1-1 1H7a1 1 0 0 1-1-1V5z" fill="currentColor"/></svg>