<svg width="24" height="24" fill="none" xmlns="http://www.w3.org/2000/svg"><path fill-rule="evenodd" clip-rule="evenodd" d="M5 22a3 3 0 0 1-3-3V5a3 3 0 0 1 3-3h10a3 3 0 0 1 3 3v10h4v4a3 3 0 0 1-3 3H5zm13-3a1 1 0 0 0 2 0v-2h-2v2zM6 14a.5.5 0 0 1 .5-.5h7a.5.5 0 0 1 0 1h-7A.5.5 0 0 1 6 14zm.5 1.5a.5.5 0 0 0 0 1h7a.5.5 0 0 0 0-1h-7zM6 18a.5.5 0 0 1 .5-.5h7a.5.5 0 0 1 0 1h-7A.5.5 0 0 1 6 18zM9 6a.5.5 0 0 0-1 0v.5h-.75a1.25 1.25 0 1 0 0 2.5h2.5a.25.25 0 0 1 0 .5H7a.5.5 0 0 0 0 1h1v.5a.5.5 0 0 0 1 0v-.5h.75a1.25 1.25 0 1 0 0-2.5h-2.5a.25.25 0 0 1 0-.5H10a.5.5 0 0 0 0-1H9V6z" fill="currentColor"/></svg>