<svg width="24" height="24" fill="none" xmlns="http://www.w3.org/2000/svg"><path fill-rule="evenodd" clip-rule="evenodd" d="M10.695 2.084a10.085 10.085 0 0 1 2.61 0 1 1 0 1 1-.259 1.984 8.085 8.085 0 0 0-2.092 0 1 1 0 1 1-.259-1.984zM7.314 4.25a1 1 0 0 1-.184 1.402A8.054 8.054 0 0 0 5.652 7.13a1 1 0 1 1-1.586-1.218 10.052 10.052 0 0 1 1.846-1.846 1 1 0 0 1 1.402.184zm9.372 0a1 1 0 0 1 1.402-.184 10.053 10.053 0 0 1 1.845 1.846 1 1 0 0 1-1.585 1.218 8.054 8.054 0 0 0-1.478-1.478 1 1 0 0 1-.184-1.402zM3.206 9.833a1 1 0 0 1 .862 1.12 8.085 8.085 0 0 0 0 2.093 1 1 0 0 1-1.984.259 10.085 10.085 0 0 1 0-2.61 1 1 0 0 1 1.121-.862zm17.589 0a1 1 0 0 1 1.12.862 10.077 10.077 0 0 1 0 2.61 1 1 0 1 1-1.983-.259 8.085 8.085 0 0 0 0-2.092 1 1 0 0 1 .863-1.121zM4.25 16.686a1 1 0 0 1 1.402.184 8.054 8.054 0 0 0 1.478 1.478 1 1 0 1 1-1.218 1.585 10.053 10.053 0 0 1-1.846-1.845 1 1 0 0 1 .184-1.402zm15.5 0a1 1 0 0 1 .183 1.402 10.054 10.054 0 0 1-1.845 1.845 1 1 0 0 1-1.218-1.585 8.054 8.054 0 0 0 1.478-1.478 1 1 0 0 1 1.402-.184zm-9.917 4.109a1 1 0 0 1 1.12-.863 8.085 8.085 0 0 0 2.093 0 1 1 0 0 1 .259 1.984 10.077 10.077 0 0 1-2.61 0 1 1 0 0 1-.862-1.121z" fill="currentColor"/></svg>