<svg width="32" height="32" fill="none" xmlns="http://www.w3.org/2000/svg"><path d="M28 12.5a7 7 0 0 0-7-7c-1.83 0-3.621.914-5 2.328C14.621 6.414 12.83 5.5 11 5.5a7 7 0 0 0-7 7c0 5.77 3.702 10.652 10.78 14.61a2.5 2.5 0 0 0 2.22.11V24c0-1.489.814-2.788 2.02-3.477a5.5 5.5 0 0 1 8.397-4.186c.387-1.232.583-2.511.583-3.837Z" fill="#858585"/><path d="M24.5 19.5A1.5 1.5 0 0 0 23 21v1h3v-1a1.5 1.5 0 0 0-1.5-1.5Z" fill="#fff"/><path fill-rule="evenodd" clip-rule="evenodd" d="M32 24a3.998 3.998 0 0 0-2.02-3.477 5.5 5.5 0 0 0-10.96 0A3.998 3.998 0 0 0 17 24v4a4 4 0 0 0 4 4h7a4 4 0 0 0 4-4v-4Zm-2 0a2 2 0 0 0-2-2v-1a3.5 3.5 0 1 0-7 0v1a2 2 0 0 0-2 2v4a2 2 0 0 0 2 2h7a2 2 0 0 0 2-2v-4Z" fill="#fff"/><path fill-rule="evenodd" clip-rule="evenodd" d="M28 22a2 2 0 0 1 2 2v4a2 2 0 0 1-2 2h-7a2 2 0 0 1-2-2v-4a2 2 0 0 1 2-2v-1a3.5 3.5 0 1 1 7 0v1Zm-5-1a1.5 1.5 0 0 1 3 0v1h-3v-1Z" fill="#1F1F1F"/></svg>