<svg width="24" height="24" fill="none" xmlns="http://www.w3.org/2000/svg"><path fill-rule="evenodd" clip-rule="evenodd" d="M11.293.293a1 1 0 0 1 1.414 0l3 3A1 1 0 0 1 15 5H9a1 1 0 0 1-.707-1.707l3-3zm-6.91 7.783A1 1 0 0 1 5 9v6a1 1 0 0 1-1.707.707l-3-3a1 1 0 0 1 0-1.414l3-3a1 1 0 0 1 1.09-.217zm15.234 0a1 1 0 0 1 1.09.217l3 3a1 1 0 0 1 0 1.414l-3 3A1 1 0 0 1 19 15V9a1 1 0 0 1 .617-.924zM8.077 19.617A1 1 0 0 1 9 19h6a1 1 0 0 1 .707 1.707l-3 3a1 1 0 0 1-1.414 0l-3-3a1 1 0 0 1-.217-1.09z" fill="currentColor"/></svg>