<svg width="24" height="24" fill="none" xmlns="http://www.w3.org/2000/svg"><path fill-rule="evenodd" clip-rule="evenodd" d="M6 4.5A2.5 2.5 0 0 0 3.5 7v10A2.5 2.5 0 0 0 6 19.5h12a2.5 2.5 0 0 0 2.5-2.5V7A2.5 2.5 0 0 0 18 4.5H6zM2.5 7A3.5 3.5 0 0 1 6 3.5h12A3.5 3.5 0 0 1 21.5 7v10a3.5 3.5 0 0 1-3.5 3.5H6A3.5 3.5 0 0 1 2.5 17V7zm11 2a2.5 2.5 0 1 1 5 0 2.5 2.5 0 0 1-5 0zM16 7.5a1.5 1.5 0 1 0 0 3 1.5 1.5 0 0 0 0-3zm-7 3.441 6 3 4.5-2.25V17a1.5 1.5 0 0 1-1.5 1.5H6A1.5 1.5 0 0 1 4.5 17v-3.809l4.5-2.25zm-3.5 2.868V17a.5.5 0 0 0 .5.5h12a.5.5 0 0 0 .5-.5v-3.691l-3.5 1.75-6-3-3.5 1.75z" fill="currentColor"/></svg>