<svg width="24" height="24" fill="none" xmlns="http://www.w3.org/2000/svg"><path fill-rule="evenodd" clip-rule="evenodd" d="m12.01 2.008-.748.817-.112.123a275.021 275.021 0 0 0-1.248 1.375c-.702.779-1.508 1.68-1.805 2.052A4.985 4.985 0 0 0 7.1 8.5H5.828a2 2 0 0 0-1.965 1.626l-1.62 8.5A2 2 0 0 0 4.21 21h15.583a2 2 0 0 0 1.964-2.374l-1.619-8.5A2 2 0 0 0 18.173 8.5H16.9a4.985 4.985 0 0 0-.997-2.125l-.017-.021-3.877-4.346zM16.9 10.5a5.002 5.002 0 0 1-9.8 0H5.828L4.208 19h15.584l-1.62-8.5H16.9zm-5.513-4.837.606-.67 2.365 2.652a3 3 0 1 1-4.7-.02c.251-.313 1.007-1.162 1.73-1.962z" fill="currentColor"/></svg>