<svg width="24" height="24" fill="none" xmlns="http://www.w3.org/2000/svg"><path fill-rule="evenodd" clip-rule="evenodd" d="m3.673 18.123.767-3.833 7.247-7.247 4.243 4.242-1.324 1.325a5 5 0 1 1-1.996 1.996l-3.928 3.927-3.832.766a1 1 0 0 1-1.177-1.176zM15.5 15.374a.5.5 0 0 1 .753-.43l2.764 1.625a.5.5 0 0 1 0 .862l-2.764 1.626a.5.5 0 0 1-.753-.431v-3.252z" fill="currentColor"/><path d="m17.344 9.87-4.242-4.242 1.414-1.414a2 2 0 0 1 2.828 0l1.415 1.414a2 2 0 0 1 0 2.829L17.344 9.87z" fill="currentColor"/></svg>