<svg width="24" height="24" fill="none" xmlns="http://www.w3.org/2000/svg"><path fill-rule="evenodd" clip-rule="evenodd" d="M13 5a3 3 0 1 1-6 0 3 3 0 0 1 6 0zm-2 0a1 1 0 1 1-2 0 1 1 0 0 1 2 0zm7.555 1.832a1 1 0 0 0-1.11-1.664l-12 8a1 1 0 0 0 1.11 1.664L9 13.202v2.447l-3.78 4.726a1 1 0 0 0 1.56 1.25L10.48 17h3.04l3.7 4.625a1 1 0 1 0 1.56-1.25L15 15.65V9.202l3.555-2.37zM11 15v-3.132l2-1.333V15h-2z" fill="currentColor"/><path clip-rule="evenodd" d="M13 5a3 3 0 1 1-6 0 3 3 0 0 1 6 0zm-2 0a1 1 0 1 1-2 0 1 1 0 0 1 2 0zm7.555 1.832a1 1 0 0 0-1.11-1.664l-12 8a1 1 0 0 0 1.11 1.664L9 13.202v2.447l-3.78 4.726a1 1 0 0 0 1.56 1.25L10.48 17h3.04l3.7 4.625a1 1 0 1 0 1.56-1.25L15 15.65V9.202l3.555-2.37zM11 15v-3.132l2-1.333V15h-2z" stroke="#fff"/></svg>