<svg width="24" height="24" fill="none" xmlns="http://www.w3.org/2000/svg"><path d="M15.707 14.707a1 1 0 0 0-1.414-1.414L13 14.586V7a1 1 0 1 0-2 0v7.586l-1.293-1.293a1 1 0 0 0-1.414 1.414l3 3a1 1 0 0 0 .698.293" fill="currentColor"/><path d="M12.383 17.924a.997.997 0 0 0 .324-.217l3-3m-3.324 3.217a.996.996 0 0 1-.374.076l.374-.076z" fill="currentColor"/><path fill-rule="evenodd" clip-rule="evenodd" d="M17 3H7a4 4 0 0 0-4 4v10a4 4 0 0 0 4 4h10a4 4 0 0 0 4-4V7a4 4 0 0 0-4-4zM5 7a2 2 0 0 1 2-2h10a2 2 0 0 1 2 2v10a2 2 0 0 1-2 2H7a2 2 0 0 1-2-2V7z" fill="currentColor"/></svg>