<svg width="24" height="24" fill="none" xmlns="http://www.w3.org/2000/svg"><path fill-rule="evenodd" clip-rule="evenodd" d="M12 9a3 3 0 1 0 0 6 3 3 0 0 0 0-6zm-5 3a5 5 0 1 1 10 0 5 5 0 0 1-10 0zm5-10a1 1 0 0 1 1 1v1a1 1 0 1 1-2 0V3a1 1 0 0 1 1-1zm7 10a1 1 0 0 1 1-1h1a1 1 0 1 1 0 2h-1a1 1 0 0 1-1-1zM2 12a1 1 0 0 1 1-1h1a1 1 0 1 1 0 2H3a1 1 0 0 1-1-1zm10 7a1 1 0 0 1 1 1v1a1 1 0 1 1-2 0v-1a1 1 0 0 1 1-1zM4.929 4.929a1 1 0 0 1 1.414 0l.707.707A1 1 0 0 1 5.636 7.05l-.707-.707a1 1 0 0 1 0-1.414zM16.95 7.05a1 1 0 0 1 0-1.414l.707-.707a1 1 0 1 1 1.414 1.414l-.707.707a1 1 0 0 1-1.414 0zM4.929 19.071a1 1 0 0 1 0-1.414l.707-.707a1 1 0 0 1 1.414 1.414l-.707.707a1 1 0 0 1-1.414 0zM16.95 16.95a1 1 0 0 1 1.414 0l.707.707a1 1 0 0 1-1.414 1.414l-.707-.707a1 1 0 0 1 0-1.414z" fill="currentColor"/></svg>